<svg xmlns="http://www.w3.org/2000/svg" viewBox="0 0 200 200" fill="none">
  <g stroke="#3B7BF5" stroke-width="2.5" stroke-linecap="round">
    <!-- Inner ring -->
    <polygon points="142,100 130,130 100,142 70,130 58,100 70,70 100,58 130,70" fill="none"/>
    <!-- Outer to inner spokes -->
    <line x1="180" y1="100" x2="142" y2="100"/>
    <line x1="180" y1="100" x2="130" y2="70"/>
    <line x1="180" y1="100" x2="130" y2="130"/>
    <line x1="169" y1="140" x2="130" y2="130"/>
    <line x1="169" y1="140" x2="142" y2="100"/>
    <line x1="140" y1="169" x2="130" y2="130"/>
    <line x1="140" y1="169" x2="100" y2="142"/>
    <line x1="100" y1="180" x2="100" y2="142"/>
    <line x1="100" y1="180" x2="130" y2="130"/>
    <line x1="100" y1="180" x2="70" y2="130"/>
    <line x1="60" y1="169" x2="70" y2="130"/>
    <line x1="60" y1="169" x2="100" y2="142"/>
    <line x1="31" y1="140" x2="70" y2="130"/>
    <line x1="31" y1="140" x2="58" y2="100"/>
    <line x1="20" y1="100" x2="58" y2="100"/>
    <line x1="20" y1="100" x2="70" y2="130"/>
    <line x1="20" y1="100" x2="70" y2="70"/>
    <line x1="31" y1="60" x2="70" y2="70"/>
    <line x1="31" y1="60" x2="58" y2="100"/>
    <line x1="60" y1="31" x2="70" y2="70"/>
    <line x1="60" y1="31" x2="100" y2="58"/>
    <line x1="100" y1="20" x2="100" y2="58"/>
    <line x1="100" y1="20" x2="70" y2="70"/>
    <line x1="100" y1="20" x2="130" y2="70"/>
    <line x1="140" y1="31" x2="130" y2="70"/>
    <line x1="140" y1="31" x2="100" y2="58"/>
    <line x1="169" y1="60" x2="130" y2="70"/>
    <line x1="169" y1="60" x2="142" y2="100"/>
    <!-- Cross outer connections -->
    <line x1="180" y1="100" x2="140" y2="31"/>
    <line x1="180" y1="100" x2="140" y2="169"/>
    <line x1="100" y1="20" x2="169" y2="140"/>
    <line x1="100" y1="180" x2="31" y2="60"/>
    <line x1="20" y1="100" x2="60" y2="31"/>
    <line x1="20" y1="100" x2="60" y2="169"/>
  </g>
  <!-- Outer nodes -->
  <g fill="#3B7BF5">
    <circle cx="180" cy="100" r="7"/>
    <circle cx="169" cy="140" r="7"/>
    <circle cx="140" cy="169" r="7"/>
    <circle cx="100" cy="180" r="7"/>
    <circle cx="60" cy="169" r="7"/>
    <circle cx="31" cy="140" r="7"/>
    <circle cx="20" cy="100" r="7"/>
    <circle cx="31" cy="60" r="7"/>
    <circle cx="60" cy="31" r="7"/>
    <circle cx="100" cy="20" r="7"/>
    <circle cx="140" cy="31" r="7"/>
    <circle cx="169" cy="60" r="7"/>
    <!-- Inner nodes -->
    <circle cx="142" cy="100" r="5.5"/>
    <circle cx="130" cy="130" r="5.5"/>
    <circle cx="100" cy="142" r="5.5"/>
    <circle cx="70" cy="130" r="5.5"/>
    <circle cx="58" cy="100" r="5.5"/>
    <circle cx="70" cy="70" r="5.5"/>
    <circle cx="100" cy="58" r="5.5"/>
    <circle cx="130" cy="70" r="5.5"/>
  </g>
</svg>
